{
	"asset":{
		"generator":"Khronos glTF Blender I/O v4.0.44",
		"version":"2.0"
	},
	"scene":0,
	"scenes":[
		{
			"name":"Scene",
			"nodes":[
				0,
				1,
				2,
				3,
				4,
				5
			]
		}
	],
	"nodes":[
		{
			"mesh":0,
			"name":"Cube",
			"scale":[
				1,
				1.0009223222732544,
				3.869183301925659
			],
			"translation":[
				0,
				-0.0010890960693359375,
				3.4461498260498047
			]
		},
		{
			"mesh":1,
			"name":"Cube.001",
			"scale":[
				1,
				1.0009223222732544,
				3.869183301925659
			],
			"translation":[
				0,
				-0.0010890960693359375,
				-0.42303359508514404
			]
		},
		{
			"mesh":2,
			"name":"Cube.002",
			"scale":[
				1,
				1.0009223222732544,
				3.869183301925659
			],
			"translation":[
				0,
				-0.0010890960693359375,
				-4.292217254638672
			]
		},
		{
			"mesh":3,
			"name":"Cube.003",
			"scale":[
				1,
				1.0009223222732544,
				3.869183301925659
			],
			"translation":[
				0,
				-0.0010890960693359375,
				-4.292217254638672
			]
		},
		{
			"mesh":4,
			"name":"tekst",
			"rotation":[
				0.5073187947273254,
				0.49920788407325745,
				-0.500684916973114,
				0.492680162191391
			],
			"scale":[
				1.7846503257751465,
				1.0002838373184204,
				1.7844911813735962
			],
			"translation":[
				1.0460634231567383,
				-0.6425319910049438,
				5.079614639282227
			]
		},
		{
			"mesh":5,
			"name":"tekst.001",
			"rotation":[
				0.5028795003890991,
				-0.490511417388916,
				0.5051435232162476,
				0.5013390183448792
			],
			"scale":[
				1.7846503257751465,
				1.0002838373184204,
				1.7844911813735962
			],
			"translation":[
				-0.9539365768432617,
				-0.6425319910049438,
				-3.9203853607177734
			]
		}
	],
	"materials":[
		{
			"doubleSided":true,
			"name":"Material",
			"pbrMetallicRoughness":{
				"baseColorFactor":[
					0.0343448631465435,
					0.7990683317184448,
					0.030711419880390167,
					1
				],
				"metallicFactor":0,
				"roughnessFactor":0.5
			}
		},
		{
			"doubleSided":true,
			"name":"Material.001",
			"pbrMetallicRoughness":{
				"baseColorFactor":[
					0.0343448631465435,
					0.7990683317184448,
					0.030711419880390167,
					1
				],
				"metallicFactor":0,
				"roughnessFactor":0.5
			}
		},
		{
			"doubleSided":true,
			"name":"Material.002",
			"pbrMetallicRoughness":{
				"baseColorFactor":[
					0.0343448631465435,
					0.7990683317184448,
					0.030711419880390167,
					1
				],
				"metallicFactor":0,
				"roughnessFactor":0.5
			}
		},
		{
			"doubleSided":true,
			"name":"Material.004",
			"pbrMetallicRoughness":{
				"baseColorFactor":[
					0.0343448631465435,
					0.7990683317184448,
					0.030711419880390167,
					1
				],
				"metallicFactor":0,
				"roughnessFactor":0.5
			}
		}
	],
	"meshes":[
		{
			"name":"Cube",
			"primitives":[
				{
					"attributes":{
						"POSITION":0,
						"NORMAL":1,
						"TEXCOORD_0":2
					},
					"indices":3,
					"material":0
				}
			]
		},
		{
			"name":"Cube.001",
			"primitives":[
				{
					"attributes":{
						"POSITION":4,
						"NORMAL":5,
						"TEXCOORD_0":6
					},
					"indices":7,
					"material":1
				}
			]
		},
		{
			"name":"Cube.002",
			"primitives":[
				{
					"attributes":{
						"POSITION":8,
						"NORMAL":9,
						"TEXCOORD_0":10
					},
					"indices":7,
					"material":2
				}
			]
		},
		{
			"name":"Cube.004",
			"primitives":[
				{
					"attributes":{
						"POSITION":11,
						"NORMAL":12,
						"TEXCOORD_0":13
					},
					"indices":7,
					"material":3
				}
			]
		},
		{
			"name":"test",
			"primitives":[
				{
					"attributes":{
						"POSITION":14,
						"NORMAL":15,
						"TEXCOORD_0":16
					},
					"indices":17
				}
			]
		},
		{
			"name":"test.001",
			"primitives":[
				{
					"attributes":{
						"POSITION":18,
						"NORMAL":19,
						"TEXCOORD_0":20
					},
					"indices":17
				}
			]
		}
	],
	"accessors":[
		{
			"bufferView":0,
			"componentType":5126,
			"count":286,
			"max":[
				2.446861505508423,
				2.3946588039398193,
				1
			],
			"min":[
				-2.446861505508423,
				-2.4750587940216064,
				-5.364029884338379
			],
			"type":"VEC3"
		},
		{
			"bufferView":1,
			"componentType":5126,
			"count":286,
			"type":"VEC3"
		},
		{
			"bufferView":2,
			"componentType":5126,
			"count":286,
			"type":"VEC2"
		},
		{
			"bufferView":3,
			"componentType":5123,
			"count":606,
			"type":"SCALAR"
		},
		{
			"bufferView":4,
			"componentType":5126,
			"count":24,
			"max":[
				1,
				1,
				1
			],
			"min":[
				-1,
				-1,
				-1
			],
			"type":"VEC3"
		},
		{
			"bufferView":5,
			"componentType":5126,
			"count":24,
			"type":"VEC3"
		},
		{
			"bufferView":6,
			"componentType":5126,
			"count":24,
			"type":"VEC2"
		},
		{
			"bufferView":7,
			"componentType":5123,
			"count":36,
			"type":"SCALAR"
		},
		{
			"bufferView":8,
			"componentType":5126,
			"count":24,
			"max":[
				1,
				1,
				1
			],
			"min":[
				-1,
				-1,
				-1
			],
			"type":"VEC3"
		},
		{
			"bufferView":9,
			"componentType":5126,
			"count":24,
			"type":"VEC3"
		},
		{
			"bufferView":10,
			"componentType":5126,
			"count":24,
			"type":"VEC2"
		},
		{
			"bufferView":11,
			"componentType":5126,
			"count":24,
			"max":[
				1,
				1,
				1
			],
			"min":[
				-1,
				-1,
				-1
			],
			"type":"VEC3"
		},
		{
			"bufferView":12,
			"componentType":5126,
			"count":24,
			"type":"VEC3"
		},
		{
			"bufferView":13,
			"componentType":5126,
			"count":24,
			"type":"VEC2"
		},
		{
			"bufferView":14,
			"componentType":5126,
			"count":1081,
			"max":[
				5.426000118255615,
				0,
				0.009000000543892384
			],
			"min":[
				0.07000000029802322,
				0,
				-0.6820000410079956
			],
			"type":"VEC3"
		},
		{
			"bufferView":15,
			"componentType":5126,
			"count":1081,
			"type":"VEC3"
		},
		{
			"bufferView":16,
			"componentType":5126,
			"count":1081,
			"type":"VEC2"
		},
		{
			"bufferView":17,
			"componentType":5123,
			"count":3225,
			"type":"SCALAR"
		},
		{
			"bufferView":18,
			"componentType":5126,
			"count":1081,
			"max":[
				5.426000118255615,
				0,
				0.009000000543892384
			],
			"min":[
				0.07000000029802322,
				0,
				-0.6820000410079956
			],
			"type":"VEC3"
		},
		{
			"bufferView":19,
			"componentType":5126,
			"count":1081,
			"type":"VEC3"
		},
		{
			"bufferView":20,
			"componentType":5126,
			"count":1081,
			"type":"VEC2"
		}
	],
	"bufferViews":[
		{
			"buffer":0,
			"byteLength":3432,
			"byteOffset":0,
			"target":34962
		},
		{
			"buffer":0,
			"byteLength":3432,
			"byteOffset":3432,
			"target":34962
		},
		{
			"buffer":0,
			"byteLength":2288,
			"byteOffset":6864,
			"target":34962
		},
		{
			"buffer":0,
			"byteLength":1212,
			"byteOffset":9152,
			"target":34963
		},
		{
			"buffer":0,
			"byteLength":288,
			"byteOffset":10364,
			"target":34962
		},
		{
			"buffer":0,
			"byteLength":288,
			"byteOffset":10652,
			"target":34962
		},
		{
			"buffer":0,
			"byteLength":192,
			"byteOffset":10940,
			"target":34962
		},
		{
			"buffer":0,
			"byteLength":72,
			"byteOffset":11132,
			"target":34963
		},
		{
			"buffer":0,
			"byteLength":288,
			"byteOffset":11204,
			"target":34962
		},
		{
			"buffer":0,
			"byteLength":288,
			"byteOffset":11492,
			"target":34962
		},
		{
			"buffer":0,
			"byteLength":192,
			"byteOffset":11780,
			"target":34962
		},
		{
			"buffer":0,
			"byteLength":288,
			"byteOffset":11972,
			"target":34962
		},
		{
			"buffer":0,
			"byteLength":288,
			"byteOffset":12260,
			"target":34962
		},
		{
			"buffer":0,
			"byteLength":192,
			"byteOffset":12548,
			"target":34962
		},
		{
			"buffer":0,
			"byteLength":12972,
			"byteOffset":12740,
			"target":34962
		},
		{
			"buffer":0,
			"byteLength":12972,
			"byteOffset":25712,
			"target":34962
		},
		{
			"buffer":0,
			"byteLength":8648,
			"byteOffset":38684,
			"target":34962
		},
		{
			"buffer":0,
			"byteLength":6450,
			"byteOffset":47332,
			"target":34963
		},
		{
			"buffer":0,
			"byteLength":12972,
			"byteOffset":53784,
			"target":34962
		},
		{
			"buffer":0,
			"byteLength":12972,
			"byteOffset":66756,
			"target":34962
		},
		{
			"buffer":0,
			"byteLength":8648,
			"byteOffset":79728,
			"target":34962
		}
	],
	"buffers":[
		{
			"byteLength":88376,
			"uri":"arrow.bin"
		}
	]
}
