{
	"asset":{
		"generator":"Khronos glTF Blender I/O v4.0.44",
		"version":"2.0"
	},
	"scene":0,
	"scenes":[
		{
			"name":"Scene",
			"nodes":[
				0,
				1,
				2,
				3,
				4,
				5,
				6
			]
		}
	],
	"nodes":[
		{
			"mesh":0,
			"name":"Cube",
			"rotation":[
				0,
				-0.7084962129592896,
				0,
				0.7057147026062012
			],
			"scale":[
				1,
				1.0009223222732544,
				3.869183301925659
			],
			"translation":[
				-2.670285701751709,
				-0.0010889768600463867,
				-0.6862692832946777
			]
		},
		{
			"mesh":1,
			"name":"Cube.001",
			"rotation":[
				0,
				-0.7084962129592896,
				0,
				0.7057147026062012
			],
			"scale":[
				1,
				1.0009223222732544,
				3.869183301925659
			],
			"translation":[
				1.1988681554794312,
				-0.0010889768600463867,
				-0.6710487604141235
			]
		},
		{
			"mesh":2,
			"name":"Cube.002",
			"rotation":[
				0,
				-0.7084962129592896,
				0,
				0.7057147026062012
			],
			"scale":[
				1,
				1.0009223222732544,
				3.869183301925659
			],
			"translation":[
				5.068021774291992,
				-0.0010889768600463867,
				-0.6558287143707275
			]
		},
		{
			"mesh":3,
			"name":"Cube.003",
			"rotation":[
				0,
				-0.7084962129592896,
				0,
				0.7057147026062012
			],
			"scale":[
				1,
				1.0009223222732544,
				3.869183301925659
			],
			"translation":[
				5.068021774291992,
				-0.0010889768600463867,
				-0.6558287143707275
			]
		},
		{
			"mesh":4,
			"name":"tekst",
			"rotation":[
				0.7127556800842285,
				0.0032363582868129015,
				0.006092770956456661,
				0.7013785243034363
			],
			"scale":[
				1.784650444984436,
				1.0002838373184204,
				1.7844911813735962
			],
			"translation":[
				-4.307852745056152,
				-0.6425318717956543,
				0.3533604145050049
			]
		},
		{
			"mesh":5,
			"name":"tekst.001",
			"rotation":[
				-0.0030028405599296093,
				-0.701357901096344,
				0.7127753496170044,
				0.0062768785282969475
			],
			"scale":[
				1.7846503257751465,
				1.0002838373184204,
				1.7844911813735962
			],
			"translation":[
				4.700166702270508,
				-0.6425318717956543,
				-1.777491569519043
			]
		},
		{
			"mesh":6,
			"name":"tekst.002",
			"rotation":[
				0.00300170318223536,
				-0.9999685287475586,
				0.004400288220494986,
				0.005879922304302454
			],
			"scale":[
				1.7846503257751465,
				1.0002838373184204,
				1.7844913005828857
			],
			"translation":[
				4.699592590332031,
				1.0626575946807861,
				-1.3462495803833008
			]
		}
	],
	"materials":[
		{
			"doubleSided":true,
			"name":"Material",
			"pbrMetallicRoughness":{
				"baseColorFactor":[
					0.0343448631465435,
					0.7990683317184448,
					0.030711419880390167,
					1
				],
				"metallicFactor":0,
				"roughnessFactor":0.5
			}
		},
		{
			"doubleSided":true,
			"name":"Material.001",
			"pbrMetallicRoughness":{
				"baseColorFactor":[
					0.0343448631465435,
					0.7990683317184448,
					0.030711419880390167,
					1
				],
				"metallicFactor":0,
				"roughnessFactor":0.5
			}
		},
		{
			"doubleSided":true,
			"name":"Material.002",
			"pbrMetallicRoughness":{
				"baseColorFactor":[
					0.0343448631465435,
					0.7990683317184448,
					0.030711419880390167,
					1
				],
				"metallicFactor":0,
				"roughnessFactor":0.5
			}
		},
		{
			"doubleSided":true,
			"name":"Material.004",
			"pbrMetallicRoughness":{
				"baseColorFactor":[
					0.0343448631465435,
					0.7990683317184448,
					0.030711419880390167,
					1
				],
				"metallicFactor":0,
				"roughnessFactor":0.5
			}
		}
	],
	"meshes":[
		{
			"name":"Cube",
			"primitives":[
				{
					"attributes":{
						"POSITION":0,
						"NORMAL":1,
						"TEXCOORD_0":2
					},
					"indices":3,
					"material":0
				}
			]
		},
		{
			"name":"Cube.001",
			"primitives":[
				{
					"attributes":{
						"POSITION":4,
						"NORMAL":5,
						"TEXCOORD_0":6
					},
					"indices":7,
					"material":1
				}
			]
		},
		{
			"name":"Cube.002",
			"primitives":[
				{
					"attributes":{
						"POSITION":8,
						"NORMAL":9,
						"TEXCOORD_0":10
					},
					"indices":7,
					"material":2
				}
			]
		},
		{
			"name":"Cube.004",
			"primitives":[
				{
					"attributes":{
						"POSITION":11,
						"NORMAL":12,
						"TEXCOORD_0":13
					},
					"indices":7,
					"material":3
				}
			]
		},
		{
			"name":"test",
			"primitives":[
				{
					"attributes":{
						"POSITION":14,
						"NORMAL":15,
						"TEXCOORD_0":16
					},
					"indices":17
				}
			]
		},
		{
			"name":"tekst",
			"primitives":[
				{
					"attributes":{
						"POSITION":18,
						"NORMAL":19,
						"TEXCOORD_0":20
					},
					"indices":17
				}
			]
		},
		{
			"name":"tekst.001",
			"primitives":[
				{
					"attributes":{
						"POSITION":21,
						"NORMAL":22,
						"TEXCOORD_0":23
					},
					"indices":17
				}
			]
		}
	],
	"accessors":[
		{
			"bufferView":0,
			"componentType":5126,
			"count":286,
			"max":[
				2.446861505508423,
				2.3946588039398193,
				1
			],
			"min":[
				-2.446861505508423,
				-2.4750587940216064,
				-5.364029884338379
			],
			"type":"VEC3"
		},
		{
			"bufferView":1,
			"componentType":5126,
			"count":286,
			"type":"VEC3"
		},
		{
			"bufferView":2,
			"componentType":5126,
			"count":286,
			"type":"VEC2"
		},
		{
			"bufferView":3,
			"componentType":5123,
			"count":606,
			"type":"SCALAR"
		},
		{
			"bufferView":4,
			"componentType":5126,
			"count":24,
			"max":[
				1,
				1,
				1
			],
			"min":[
				-1,
				-1,
				-1
			],
			"type":"VEC3"
		},
		{
			"bufferView":5,
			"componentType":5126,
			"count":24,
			"type":"VEC3"
		},
		{
			"bufferView":6,
			"componentType":5126,
			"count":24,
			"type":"VEC2"
		},
		{
			"bufferView":7,
			"componentType":5123,
			"count":36,
			"type":"SCALAR"
		},
		{
			"bufferView":8,
			"componentType":5126,
			"count":24,
			"max":[
				1,
				1,
				1
			],
			"min":[
				-1,
				-1,
				-1
			],
			"type":"VEC3"
		},
		{
			"bufferView":9,
			"componentType":5126,
			"count":24,
			"type":"VEC3"
		},
		{
			"bufferView":10,
			"componentType":5126,
			"count":24,
			"type":"VEC2"
		},
		{
			"bufferView":11,
			"componentType":5126,
			"count":24,
			"max":[
				1,
				1,
				1
			],
			"min":[
				-1,
				-1,
				-1
			],
			"type":"VEC3"
		},
		{
			"bufferView":12,
			"componentType":5126,
			"count":24,
			"type":"VEC3"
		},
		{
			"bufferView":13,
			"componentType":5126,
			"count":24,
			"type":"VEC2"
		},
		{
			"bufferView":14,
			"componentType":5126,
			"count":1081,
			"max":[
				5.426000118255615,
				0,
				0.009000000543892384
			],
			"min":[
				0.07000000029802322,
				0,
				-0.6820000410079956
			],
			"type":"VEC3"
		},
		{
			"bufferView":15,
			"componentType":5126,
			"count":1081,
			"type":"VEC3"
		},
		{
			"bufferView":16,
			"componentType":5126,
			"count":1081,
			"type":"VEC2"
		},
		{
			"bufferView":17,
			"componentType":5123,
			"count":3225,
			"type":"SCALAR"
		},
		{
			"bufferView":18,
			"componentType":5126,
			"count":1081,
			"max":[
				5.426000118255615,
				0,
				0.009000000543892384
			],
			"min":[
				0.07000000029802322,
				0,
				-0.6820000410079956
			],
			"type":"VEC3"
		},
		{
			"bufferView":19,
			"componentType":5126,
			"count":1081,
			"type":"VEC3"
		},
		{
			"bufferView":20,
			"componentType":5126,
			"count":1081,
			"type":"VEC2"
		},
		{
			"bufferView":21,
			"componentType":5126,
			"count":1081,
			"max":[
				5.426000118255615,
				0,
				0.009000000543892384
			],
			"min":[
				0.07000000029802322,
				0,
				-0.6820000410079956
			],
			"type":"VEC3"
		},
		{
			"bufferView":22,
			"componentType":5126,
			"count":1081,
			"type":"VEC3"
		},
		{
			"bufferView":23,
			"componentType":5126,
			"count":1081,
			"type":"VEC2"
		}
	],
	"bufferViews":[
		{
			"buffer":0,
			"byteLength":3432,
			"byteOffset":0,
			"target":34962
		},
		{
			"buffer":0,
			"byteLength":3432,
			"byteOffset":3432,
			"target":34962
		},
		{
			"buffer":0,
			"byteLength":2288,
			"byteOffset":6864,
			"target":34962
		},
		{
			"buffer":0,
			"byteLength":1212,
			"byteOffset":9152,
			"target":34963
		},
		{
			"buffer":0,
			"byteLength":288,
			"byteOffset":10364,
			"target":34962
		},
		{
			"buffer":0,
			"byteLength":288,
			"byteOffset":10652,
			"target":34962
		},
		{
			"buffer":0,
			"byteLength":192,
			"byteOffset":10940,
			"target":34962
		},
		{
			"buffer":0,
			"byteLength":72,
			"byteOffset":11132,
			"target":34963
		},
		{
			"buffer":0,
			"byteLength":288,
			"byteOffset":11204,
			"target":34962
		},
		{
			"buffer":0,
			"byteLength":288,
			"byteOffset":11492,
			"target":34962
		},
		{
			"buffer":0,
			"byteLength":192,
			"byteOffset":11780,
			"target":34962
		},
		{
			"buffer":0,
			"byteLength":288,
			"byteOffset":11972,
			"target":34962
		},
		{
			"buffer":0,
			"byteLength":288,
			"byteOffset":12260,
			"target":34962
		},
		{
			"buffer":0,
			"byteLength":192,
			"byteOffset":12548,
			"target":34962
		},
		{
			"buffer":0,
			"byteLength":12972,
			"byteOffset":12740,
			"target":34962
		},
		{
			"buffer":0,
			"byteLength":12972,
			"byteOffset":25712,
			"target":34962
		},
		{
			"buffer":0,
			"byteLength":8648,
			"byteOffset":38684,
			"target":34962
		},
		{
			"buffer":0,
			"byteLength":6450,
			"byteOffset":47332,
			"target":34963
		},
		{
			"buffer":0,
			"byteLength":12972,
			"byteOffset":53784,
			"target":34962
		},
		{
			"buffer":0,
			"byteLength":12972,
			"byteOffset":66756,
			"target":34962
		},
		{
			"buffer":0,
			"byteLength":8648,
			"byteOffset":79728,
			"target":34962
		},
		{
			"buffer":0,
			"byteLength":12972,
			"byteOffset":88376,
			"target":34962
		},
		{
			"buffer":0,
			"byteLength":12972,
			"byteOffset":101348,
			"target":34962
		},
		{
			"buffer":0,
			"byteLength":8648,
			"byteOffset":114320,
			"target":34962
		}
	],
	"buffers":[
		{
			"byteLength":122968,
			"uri":"padaka_prawo.bin"
		}
	]
}
