{
	"asset":{
		"generator":"Khronos glTF Blender I/O v4.0.44",
		"version":"2.0"
	},
	"scene":0,
	"scenes":[
		{
			"name":"Scene",
			"nodes":[
				0,
				1,
				2,
				3,
				4,
				5,
				6,
				7,
				8,
				9,
				10,
				11,
				12,
				13
			]
		}
	],
	"nodes":[
		{
			"mesh":0,
			"name":"Cube",
			"rotation":[
				0,
				0.7048085927963257,
				0,
				0.7093974947929382
			],
			"scale":[
				1,
				1.0009223222732544,
				3.8691835403442383
			],
			"translation":[
				-5.714656829833984,
				0.9989111423492432,
				0.7241628170013428
			]
		},
		{
			"mesh":1,
			"name":"Cube.001",
			"rotation":[
				0,
				0.7048085927963257,
				0,
				0.7093974947929382
			],
			"scale":[
				1,
				1.0009223222732544,
				3.8691835403442383
			],
			"translation":[
				-9.583759307861328,
				0.9989111423492432,
				0.6990526914596558
			]
		},
		{
			"mesh":2,
			"name":"Cube.002",
			"rotation":[
				0,
				0.7048085927963257,
				0,
				0.7093974947929382
			],
			"scale":[
				1,
				1.0009223222732544,
				3.8691835403442383
			],
			"translation":[
				-13.452860832214355,
				0.9989111423492432,
				0.673943281173706
			]
		},
		{
			"mesh":3,
			"name":"Cube.003",
			"rotation":[
				0,
				0.7048085927963257,
				0,
				0.7093974947929382
			],
			"scale":[
				1,
				1.0009223222732544,
				3.8691835403442383
			],
			"translation":[
				-13.452860832214355,
				0.9989111423492432,
				0.673943281173706
			]
		},
		{
			"mesh":4,
			"name":"tekst",
			"rotation":[
				-0.007003666367381811,
				-0.7013821005821228,
				0.7127472758293152,
				0.002339994302019477
			],
			"scale":[
				1.7846503257751465,
				1.0002838373184204,
				1.7844911813735962
			],
			"translation":[
				-7.074427604675293,
				0.35746824741363525,
				-0.3189457654953003
			]
		},
		{
			"mesh":5,
			"name":"tekst.001",
			"rotation":[
				0.7127709984779358,
				0.005380538292229176,
				0.003913764376193285,
				0.7013652920722961
			],
			"scale":[
				1.784650444984436,
				1.0002838373184204,
				1.7844911813735962
			],
			"translation":[
				-13.087873458862305,
				0.35746824741363525,
				1.7965421676635742
			]
		},
		{
			"mesh":6,
			"name":"tekst.002",
			"rotation":[
				0.004404121544212103,
				0.004601959139108658,
				-0.0029960775282233953,
				0.999975323677063
			],
			"scale":[
				1.7846503257751465,
				1.0002838373184204,
				1.7844914197921753
			],
			"translation":[
				-13.086197853088379,
				2.062657594680786,
				1.3653035163879395
			]
		},
		{
			"mesh":7,
			"name":"tekst.003",
			"rotation":[
				0.003002252895385027,
				-0.9999678730964661,
				0.004399916157126427,
				0.006004613358527422
			],
			"scale":[
				1.7846503257751465,
				1.0002838373184204,
				1.7844913005828857
			],
			"translation":[
				13.273828506469727,
				1.9396705627441406,
				0.11478233337402344
			]
		},
		{
			"mesh":8,
			"name":"tekst.004",
			"rotation":[
				-0.0029139635153114796,
				-0.7013571262359619,
				0.712775707244873,
				0.006364333443343639
			],
			"scale":[
				1.7846503257751465,
				1.0002838373184204,
				1.7844911813735962
			],
			"translation":[
				13.274293899536133,
				0.23448128998279572,
				-0.31645989418029785
			]
		},
		{
			"mesh":9,
			"name":"tekst.005",
			"rotation":[
				0.7127563953399658,
				0.0033238150645047426,
				0.006003895774483681,
				0.7013781070709229
			],
			"scale":[
				1.784650444984436,
				1.0002838373184204,
				1.7844911813735962
			],
			"translation":[
				4.266807556152344,
				0.23448128998279572,
				1.8166385889053345
			]
		},
		{
			"mesh":10,
			"name":"Cube.004",
			"rotation":[
				0,
				-0.7084081768989563,
				0,
				0.7058030366897583
			],
			"scale":[
				1,
				1.0009223222732544,
				3.869183301925659
			],
			"translation":[
				13.64242935180664,
				0.8759240508079529,
				0.8051111698150635
			]
		},
		{
			"mesh":11,
			"name":"Cube.005",
			"rotation":[
				0,
				-0.7084081768989563,
				0,
				0.7058030366897583
			],
			"scale":[
				1,
				1.0009223222732544,
				3.869183301925659
			],
			"translation":[
				13.64242935180664,
				0.8759240508079529,
				0.8051111698150635
			]
		},
		{
			"mesh":12,
			"name":"Cube.006",
			"rotation":[
				0,
				-0.7084081768989563,
				0,
				0.7058030366897583
			],
			"scale":[
				1,
				1.0009223222732544,
				3.869183301925659
			],
			"translation":[
				9.773271560668945,
				0.8759240508079529,
				0.7908562421798706
			]
		},
		{
			"mesh":13,
			"name":"Cube.007",
			"rotation":[
				0,
				-0.7084081768989563,
				0,
				0.7058030366897583
			],
			"scale":[
				1,
				1.0009223222732544,
				3.869183301925659
			],
			"translation":[
				5.904114723205566,
				0.8759240508079529,
				0.7766005992889404
			]
		}
	],
	"materials":[
		{
			"doubleSided":true,
			"name":"Material",
			"pbrMetallicRoughness":{
				"baseColorFactor":[
					0.0343448631465435,
					0.7990683317184448,
					0.030711419880390167,
					1
				],
				"metallicFactor":0,
				"roughnessFactor":0.5
			}
		},
		{
			"doubleSided":true,
			"name":"Material.001",
			"pbrMetallicRoughness":{
				"baseColorFactor":[
					0.0343448631465435,
					0.7990683317184448,
					0.030711419880390167,
					1
				],
				"metallicFactor":0,
				"roughnessFactor":0.5
			}
		},
		{
			"doubleSided":true,
			"name":"Material.002",
			"pbrMetallicRoughness":{
				"baseColorFactor":[
					0.0343448631465435,
					0.7990683317184448,
					0.030711419880390167,
					1
				],
				"metallicFactor":0,
				"roughnessFactor":0.5
			}
		},
		{
			"doubleSided":true,
			"name":"Material.004",
			"pbrMetallicRoughness":{
				"baseColorFactor":[
					0.0343448631465435,
					0.7990683317184448,
					0.030711419880390167,
					1
				],
				"metallicFactor":0,
				"roughnessFactor":0.5
			}
		},
		{
			"doubleSided":true,
			"name":"Material.003",
			"pbrMetallicRoughness":{
				"baseColorFactor":[
					0.0343448631465435,
					0.7990683317184448,
					0.030711419880390167,
					1
				],
				"metallicFactor":0,
				"roughnessFactor":0.5
			}
		},
		{
			"doubleSided":true,
			"name":"Material.005",
			"pbrMetallicRoughness":{
				"baseColorFactor":[
					0.0343448631465435,
					0.7990683317184448,
					0.030711419880390167,
					1
				],
				"metallicFactor":0,
				"roughnessFactor":0.5
			}
		},
		{
			"doubleSided":true,
			"name":"Material.006",
			"pbrMetallicRoughness":{
				"baseColorFactor":[
					0.0343448631465435,
					0.7990683317184448,
					0.030711419880390167,
					1
				],
				"metallicFactor":0,
				"roughnessFactor":0.5
			}
		},
		{
			"doubleSided":true,
			"name":"Material.007",
			"pbrMetallicRoughness":{
				"baseColorFactor":[
					0.0343448631465435,
					0.7990683317184448,
					0.030711419880390167,
					1
				],
				"metallicFactor":0,
				"roughnessFactor":0.5
			}
		}
	],
	"meshes":[
		{
			"name":"Cube",
			"primitives":[
				{
					"attributes":{
						"POSITION":0,
						"NORMAL":1,
						"TEXCOORD_0":2
					},
					"indices":3,
					"material":0
				}
			]
		},
		{
			"name":"Cube.001",
			"primitives":[
				{
					"attributes":{
						"POSITION":4,
						"NORMAL":5,
						"TEXCOORD_0":6
					},
					"indices":7,
					"material":1
				}
			]
		},
		{
			"name":"Cube.002",
			"primitives":[
				{
					"attributes":{
						"POSITION":8,
						"NORMAL":9,
						"TEXCOORD_0":10
					},
					"indices":7,
					"material":2
				}
			]
		},
		{
			"name":"Cube.004",
			"primitives":[
				{
					"attributes":{
						"POSITION":11,
						"NORMAL":12,
						"TEXCOORD_0":13
					},
					"indices":7,
					"material":3
				}
			]
		},
		{
			"name":"test",
			"primitives":[
				{
					"attributes":{
						"POSITION":14,
						"NORMAL":15,
						"TEXCOORD_0":16
					},
					"indices":17
				}
			]
		},
		{
			"name":"tekst",
			"primitives":[
				{
					"attributes":{
						"POSITION":18,
						"NORMAL":19,
						"TEXCOORD_0":20
					},
					"indices":17
				}
			]
		},
		{
			"name":"tekst.001",
			"primitives":[
				{
					"attributes":{
						"POSITION":21,
						"NORMAL":22,
						"TEXCOORD_0":23
					},
					"indices":17
				}
			]
		},
		{
			"name":"tekst.002",
			"primitives":[
				{
					"attributes":{
						"POSITION":24,
						"NORMAL":25,
						"TEXCOORD_0":26
					},
					"indices":27
				}
			]
		},
		{
			"name":"tekst.003",
			"primitives":[
				{
					"attributes":{
						"POSITION":28,
						"NORMAL":29,
						"TEXCOORD_0":30
					},
					"indices":27
				}
			]
		},
		{
			"name":"test.001",
			"primitives":[
				{
					"attributes":{
						"POSITION":31,
						"NORMAL":32,
						"TEXCOORD_0":33
					},
					"indices":27
				}
			]
		},
		{
			"name":"Cube.003",
			"primitives":[
				{
					"attributes":{
						"POSITION":34,
						"NORMAL":35,
						"TEXCOORD_0":36
					},
					"indices":7,
					"material":4
				}
			]
		},
		{
			"name":"Cube.005",
			"primitives":[
				{
					"attributes":{
						"POSITION":37,
						"NORMAL":38,
						"TEXCOORD_0":39
					},
					"indices":7,
					"material":5
				}
			]
		},
		{
			"name":"Cube.006",
			"primitives":[
				{
					"attributes":{
						"POSITION":40,
						"NORMAL":41,
						"TEXCOORD_0":42
					},
					"indices":7,
					"material":6
				}
			]
		},
		{
			"name":"Cube.007",
			"primitives":[
				{
					"attributes":{
						"POSITION":43,
						"NORMAL":44,
						"TEXCOORD_0":45
					},
					"indices":3,
					"material":7
				}
			]
		}
	],
	"accessors":[
		{
			"bufferView":0,
			"componentType":5126,
			"count":286,
			"max":[
				2.446861505508423,
				2.3946588039398193,
				1
			],
			"min":[
				-2.446861505508423,
				-2.4750587940216064,
				-5.364029884338379
			],
			"type":"VEC3"
		},
		{
			"bufferView":1,
			"componentType":5126,
			"count":286,
			"type":"VEC3"
		},
		{
			"bufferView":2,
			"componentType":5126,
			"count":286,
			"type":"VEC2"
		},
		{
			"bufferView":3,
			"componentType":5123,
			"count":606,
			"type":"SCALAR"
		},
		{
			"bufferView":4,
			"componentType":5126,
			"count":24,
			"max":[
				1,
				1,
				1
			],
			"min":[
				-1,
				-1,
				-1
			],
			"type":"VEC3"
		},
		{
			"bufferView":5,
			"componentType":5126,
			"count":24,
			"type":"VEC3"
		},
		{
			"bufferView":6,
			"componentType":5126,
			"count":24,
			"type":"VEC2"
		},
		{
			"bufferView":7,
			"componentType":5123,
			"count":36,
			"type":"SCALAR"
		},
		{
			"bufferView":8,
			"componentType":5126,
			"count":24,
			"max":[
				1,
				1,
				1
			],
			"min":[
				-1,
				-1,
				-1
			],
			"type":"VEC3"
		},
		{
			"bufferView":9,
			"componentType":5126,
			"count":24,
			"type":"VEC3"
		},
		{
			"bufferView":10,
			"componentType":5126,
			"count":24,
			"type":"VEC2"
		},
		{
			"bufferView":11,
			"componentType":5126,
			"count":24,
			"max":[
				1,
				1,
				1
			],
			"min":[
				-1,
				-1,
				-1
			],
			"type":"VEC3"
		},
		{
			"bufferView":12,
			"componentType":5126,
			"count":24,
			"type":"VEC3"
		},
		{
			"bufferView":13,
			"componentType":5126,
			"count":24,
			"type":"VEC2"
		},
		{
			"bufferView":14,
			"componentType":5126,
			"count":816,
			"max":[
				3.568000316619873,
				0,
				0.23000000417232513
			],
			"min":[
				0.07700000703334808,
				0,
				-0.6820000410079956
			],
			"type":"VEC3"
		},
		{
			"bufferView":15,
			"componentType":5126,
			"count":816,
			"type":"VEC3"
		},
		{
			"bufferView":16,
			"componentType":5126,
			"count":816,
			"type":"VEC2"
		},
		{
			"bufferView":17,
			"componentType":5123,
			"count":2424,
			"type":"SCALAR"
		},
		{
			"bufferView":18,
			"componentType":5126,
			"count":816,
			"max":[
				3.568000316619873,
				0,
				0.23000000417232513
			],
			"min":[
				0.07700000703334808,
				0,
				-0.6820000410079956
			],
			"type":"VEC3"
		},
		{
			"bufferView":19,
			"componentType":5126,
			"count":816,
			"type":"VEC3"
		},
		{
			"bufferView":20,
			"componentType":5126,
			"count":816,
			"type":"VEC2"
		},
		{
			"bufferView":21,
			"componentType":5126,
			"count":816,
			"max":[
				3.568000316619873,
				0,
				0.23000000417232513
			],
			"min":[
				0.07700000703334808,
				0,
				-0.6820000410079956
			],
			"type":"VEC3"
		},
		{
			"bufferView":22,
			"componentType":5126,
			"count":816,
			"type":"VEC3"
		},
		{
			"bufferView":23,
			"componentType":5126,
			"count":816,
			"type":"VEC2"
		},
		{
			"bufferView":24,
			"componentType":5126,
			"count":1081,
			"max":[
				5.426000118255615,
				0,
				0.009000000543892384
			],
			"min":[
				0.07000000029802322,
				0,
				-0.6820000410079956
			],
			"type":"VEC3"
		},
		{
			"bufferView":25,
			"componentType":5126,
			"count":1081,
			"type":"VEC3"
		},
		{
			"bufferView":26,
			"componentType":5126,
			"count":1081,
			"type":"VEC2"
		},
		{
			"bufferView":27,
			"componentType":5123,
			"count":3225,
			"type":"SCALAR"
		},
		{
			"bufferView":28,
			"componentType":5126,
			"count":1081,
			"max":[
				5.426000118255615,
				0,
				0.009000000543892384
			],
			"min":[
				0.07000000029802322,
				0,
				-0.6820000410079956
			],
			"type":"VEC3"
		},
		{
			"bufferView":29,
			"componentType":5126,
			"count":1081,
			"type":"VEC3"
		},
		{
			"bufferView":30,
			"componentType":5126,
			"count":1081,
			"type":"VEC2"
		},
		{
			"bufferView":31,
			"componentType":5126,
			"count":1081,
			"max":[
				5.426000118255615,
				0,
				0.009000000543892384
			],
			"min":[
				0.07000000029802322,
				0,
				-0.6820000410079956
			],
			"type":"VEC3"
		},
		{
			"bufferView":32,
			"componentType":5126,
			"count":1081,
			"type":"VEC3"
		},
		{
			"bufferView":33,
			"componentType":5126,
			"count":1081,
			"type":"VEC2"
		},
		{
			"bufferView":34,
			"componentType":5126,
			"count":24,
			"max":[
				1,
				1,
				1
			],
			"min":[
				-1,
				-1,
				-1
			],
			"type":"VEC3"
		},
		{
			"bufferView":35,
			"componentType":5126,
			"count":24,
			"type":"VEC3"
		},
		{
			"bufferView":36,
			"componentType":5126,
			"count":24,
			"type":"VEC2"
		},
		{
			"bufferView":37,
			"componentType":5126,
			"count":24,
			"max":[
				1,
				1,
				1
			],
			"min":[
				-1,
				-1,
				-1
			],
			"type":"VEC3"
		},
		{
			"bufferView":38,
			"componentType":5126,
			"count":24,
			"type":"VEC3"
		},
		{
			"bufferView":39,
			"componentType":5126,
			"count":24,
			"type":"VEC2"
		},
		{
			"bufferView":40,
			"componentType":5126,
			"count":24,
			"max":[
				1,
				1,
				1
			],
			"min":[
				-1,
				-1,
				-1
			],
			"type":"VEC3"
		},
		{
			"bufferView":41,
			"componentType":5126,
			"count":24,
			"type":"VEC3"
		},
		{
			"bufferView":42,
			"componentType":5126,
			"count":24,
			"type":"VEC2"
		},
		{
			"bufferView":43,
			"componentType":5126,
			"count":286,
			"max":[
				2.446861505508423,
				2.3946588039398193,
				1
			],
			"min":[
				-2.446861505508423,
				-2.4750587940216064,
				-5.364029884338379
			],
			"type":"VEC3"
		},
		{
			"bufferView":44,
			"componentType":5126,
			"count":286,
			"type":"VEC3"
		},
		{
			"bufferView":45,
			"componentType":5126,
			"count":286,
			"type":"VEC2"
		}
	],
	"bufferViews":[
		{
			"buffer":0,
			"byteLength":3432,
			"byteOffset":0,
			"target":34962
		},
		{
			"buffer":0,
			"byteLength":3432,
			"byteOffset":3432,
			"target":34962
		},
		{
			"buffer":0,
			"byteLength":2288,
			"byteOffset":6864,
			"target":34962
		},
		{
			"buffer":0,
			"byteLength":1212,
			"byteOffset":9152,
			"target":34963
		},
		{
			"buffer":0,
			"byteLength":288,
			"byteOffset":10364,
			"target":34962
		},
		{
			"buffer":0,
			"byteLength":288,
			"byteOffset":10652,
			"target":34962
		},
		{
			"buffer":0,
			"byteLength":192,
			"byteOffset":10940,
			"target":34962
		},
		{
			"buffer":0,
			"byteLength":72,
			"byteOffset":11132,
			"target":34963
		},
		{
			"buffer":0,
			"byteLength":288,
			"byteOffset":11204,
			"target":34962
		},
		{
			"buffer":0,
			"byteLength":288,
			"byteOffset":11492,
			"target":34962
		},
		{
			"buffer":0,
			"byteLength":192,
			"byteOffset":11780,
			"target":34962
		},
		{
			"buffer":0,
			"byteLength":288,
			"byteOffset":11972,
			"target":34962
		},
		{
			"buffer":0,
			"byteLength":288,
			"byteOffset":12260,
			"target":34962
		},
		{
			"buffer":0,
			"byteLength":192,
			"byteOffset":12548,
			"target":34962
		},
		{
			"buffer":0,
			"byteLength":9792,
			"byteOffset":12740,
			"target":34962
		},
		{
			"buffer":0,
			"byteLength":9792,
			"byteOffset":22532,
			"target":34962
		},
		{
			"buffer":0,
			"byteLength":6528,
			"byteOffset":32324,
			"target":34962
		},
		{
			"buffer":0,
			"byteLength":4848,
			"byteOffset":38852,
			"target":34963
		},
		{
			"buffer":0,
			"byteLength":9792,
			"byteOffset":43700,
			"target":34962
		},
		{
			"buffer":0,
			"byteLength":9792,
			"byteOffset":53492,
			"target":34962
		},
		{
			"buffer":0,
			"byteLength":6528,
			"byteOffset":63284,
			"target":34962
		},
		{
			"buffer":0,
			"byteLength":9792,
			"byteOffset":69812,
			"target":34962
		},
		{
			"buffer":0,
			"byteLength":9792,
			"byteOffset":79604,
			"target":34962
		},
		{
			"buffer":0,
			"byteLength":6528,
			"byteOffset":89396,
			"target":34962
		},
		{
			"buffer":0,
			"byteLength":12972,
			"byteOffset":95924,
			"target":34962
		},
		{
			"buffer":0,
			"byteLength":12972,
			"byteOffset":108896,
			"target":34962
		},
		{
			"buffer":0,
			"byteLength":8648,
			"byteOffset":121868,
			"target":34962
		},
		{
			"buffer":0,
			"byteLength":6450,
			"byteOffset":130516,
			"target":34963
		},
		{
			"buffer":0,
			"byteLength":12972,
			"byteOffset":136968,
			"target":34962
		},
		{
			"buffer":0,
			"byteLength":12972,
			"byteOffset":149940,
			"target":34962
		},
		{
			"buffer":0,
			"byteLength":8648,
			"byteOffset":162912,
			"target":34962
		},
		{
			"buffer":0,
			"byteLength":12972,
			"byteOffset":171560,
			"target":34962
		},
		{
			"buffer":0,
			"byteLength":12972,
			"byteOffset":184532,
			"target":34962
		},
		{
			"buffer":0,
			"byteLength":8648,
			"byteOffset":197504,
			"target":34962
		},
		{
			"buffer":0,
			"byteLength":288,
			"byteOffset":206152,
			"target":34962
		},
		{
			"buffer":0,
			"byteLength":288,
			"byteOffset":206440,
			"target":34962
		},
		{
			"buffer":0,
			"byteLength":192,
			"byteOffset":206728,
			"target":34962
		},
		{
			"buffer":0,
			"byteLength":288,
			"byteOffset":206920,
			"target":34962
		},
		{
			"buffer":0,
			"byteLength":288,
			"byteOffset":207208,
			"target":34962
		},
		{
			"buffer":0,
			"byteLength":192,
			"byteOffset":207496,
			"target":34962
		},
		{
			"buffer":0,
			"byteLength":288,
			"byteOffset":207688,
			"target":34962
		},
		{
			"buffer":0,
			"byteLength":288,
			"byteOffset":207976,
			"target":34962
		},
		{
			"buffer":0,
			"byteLength":192,
			"byteOffset":208264,
			"target":34962
		},
		{
			"buffer":0,
			"byteLength":3432,
			"byteOffset":208456,
			"target":34962
		},
		{
			"buffer":0,
			"byteLength":3432,
			"byteOffset":211888,
			"target":34962
		},
		{
			"buffer":0,
			"byteLength":2288,
			"byteOffset":215320,
			"target":34962
		}
	],
	"buffers":[
		{
			"byteLength":217608,
			"uri":"padaka_lewo_recepcja_prawo.bin"
		}
	]
}
