{
	"asset":{
		"generator":"Khronos glTF Blender I/O v4.0.44",
		"version":"2.0"
	},
	"scene":0,
	"scenes":[
		{
			"name":"Scene",
			"nodes":[
				0,
				1,
				2,
				3,
				4,
				5,
				6
			]
		}
	],
	"nodes":[
		{
			"mesh":0,
			"name":"Cube",
			"rotation":[
				0,
				0.7048085927963257,
				0,
				0.7093974947929382
			],
			"scale":[
				1,
				1.0009223222732544,
				3.8691835403442383
			],
			"translation":[
				5.285343170166016,
				-0.001088857650756836,
				1.7241628170013428
			]
		},
		{
			"mesh":1,
			"name":"Cube.001",
			"rotation":[
				0,
				0.7048085927963257,
				0,
				0.7093974947929382
			],
			"scale":[
				1,
				1.0009223222732544,
				3.8691835403442383
			],
			"translation":[
				1.41624116897583,
				-0.001088857650756836,
				1.6990526914596558
			]
		},
		{
			"mesh":2,
			"name":"Cube.002",
			"rotation":[
				0,
				0.7048085927963257,
				0,
				0.7093974947929382
			],
			"scale":[
				1,
				1.0009223222732544,
				3.8691835403442383
			],
			"translation":[
				-2.4528608322143555,
				-0.001088857650756836,
				1.673943281173706
			]
		},
		{
			"mesh":3,
			"name":"Cube.003",
			"rotation":[
				0,
				0.7048085927963257,
				0,
				0.7093974947929382
			],
			"scale":[
				1,
				1.0009223222732544,
				3.8691835403442383
			],
			"translation":[
				-2.4528608322143555,
				-0.001088857650756836,
				1.673943281173706
			]
		},
		{
			"mesh":4,
			"name":"tekst",
			"rotation":[
				-0.007003666367381811,
				-0.7013821005821228,
				0.7127472758293152,
				0.002339994302019477
			],
			"scale":[
				1.7846503257751465,
				1.0002838373184204,
				1.7844911813735962
			],
			"translation":[
				3.925572395324707,
				-0.6425317525863647,
				0.6810542345046997
			]
		},
		{
			"mesh":5,
			"name":"tekst.001",
			"rotation":[
				0.7127709984779358,
				0.005380538292229176,
				0.003913764376193285,
				0.7013652920722961
			],
			"scale":[
				1.784650444984436,
				1.0002838373184204,
				1.7844911813735962
			],
			"translation":[
				-2.087873935699463,
				-0.6425317525863647,
				2.796542167663574
			]
		},
		{
			"mesh":6,
			"name":"tekst.002",
			"rotation":[
				0.004404121544212103,
				0.004601959139108658,
				-0.0029960775282233953,
				0.999975323677063
			],
			"scale":[
				1.7846503257751465,
				1.0002838373184204,
				1.7844914197921753
			],
			"translation":[
				-2.086197853088379,
				1.0626575946807861,
				2.3653035163879395
			]
		}
	],
	"materials":[
		{
			"doubleSided":true,
			"name":"Material",
			"pbrMetallicRoughness":{
				"baseColorFactor":[
					0.0343448631465435,
					0.7990683317184448,
					0.030711419880390167,
					1
				],
				"metallicFactor":0,
				"roughnessFactor":0.5
			}
		},
		{
			"doubleSided":true,
			"name":"Material.001",
			"pbrMetallicRoughness":{
				"baseColorFactor":[
					0.0343448631465435,
					0.7990683317184448,
					0.030711419880390167,
					1
				],
				"metallicFactor":0,
				"roughnessFactor":0.5
			}
		},
		{
			"doubleSided":true,
			"name":"Material.002",
			"pbrMetallicRoughness":{
				"baseColorFactor":[
					0.0343448631465435,
					0.7990683317184448,
					0.030711419880390167,
					1
				],
				"metallicFactor":0,
				"roughnessFactor":0.5
			}
		},
		{
			"doubleSided":true,
			"name":"Material.004",
			"pbrMetallicRoughness":{
				"baseColorFactor":[
					0.0343448631465435,
					0.7990683317184448,
					0.030711419880390167,
					1
				],
				"metallicFactor":0,
				"roughnessFactor":0.5
			}
		}
	],
	"meshes":[
		{
			"name":"Cube",
			"primitives":[
				{
					"attributes":{
						"POSITION":0,
						"NORMAL":1,
						"TEXCOORD_0":2
					},
					"indices":3,
					"material":0
				}
			]
		},
		{
			"name":"Cube.001",
			"primitives":[
				{
					"attributes":{
						"POSITION":4,
						"NORMAL":5,
						"TEXCOORD_0":6
					},
					"indices":7,
					"material":1
				}
			]
		},
		{
			"name":"Cube.002",
			"primitives":[
				{
					"attributes":{
						"POSITION":8,
						"NORMAL":9,
						"TEXCOORD_0":10
					},
					"indices":7,
					"material":2
				}
			]
		},
		{
			"name":"Cube.004",
			"primitives":[
				{
					"attributes":{
						"POSITION":11,
						"NORMAL":12,
						"TEXCOORD_0":13
					},
					"indices":7,
					"material":3
				}
			]
		},
		{
			"name":"test",
			"primitives":[
				{
					"attributes":{
						"POSITION":14,
						"NORMAL":15,
						"TEXCOORD_0":16
					},
					"indices":17
				}
			]
		},
		{
			"name":"tekst",
			"primitives":[
				{
					"attributes":{
						"POSITION":18,
						"NORMAL":19,
						"TEXCOORD_0":20
					},
					"indices":17
				}
			]
		},
		{
			"name":"tekst.001",
			"primitives":[
				{
					"attributes":{
						"POSITION":21,
						"NORMAL":22,
						"TEXCOORD_0":23
					},
					"indices":17
				}
			]
		}
	],
	"accessors":[
		{
			"bufferView":0,
			"componentType":5126,
			"count":286,
			"max":[
				2.446861505508423,
				2.3946588039398193,
				1
			],
			"min":[
				-2.446861505508423,
				-2.4750587940216064,
				-5.364029884338379
			],
			"type":"VEC3"
		},
		{
			"bufferView":1,
			"componentType":5126,
			"count":286,
			"type":"VEC3"
		},
		{
			"bufferView":2,
			"componentType":5126,
			"count":286,
			"type":"VEC2"
		},
		{
			"bufferView":3,
			"componentType":5123,
			"count":606,
			"type":"SCALAR"
		},
		{
			"bufferView":4,
			"componentType":5126,
			"count":24,
			"max":[
				1,
				1,
				1
			],
			"min":[
				-1,
				-1,
				-1
			],
			"type":"VEC3"
		},
		{
			"bufferView":5,
			"componentType":5126,
			"count":24,
			"type":"VEC3"
		},
		{
			"bufferView":6,
			"componentType":5126,
			"count":24,
			"type":"VEC2"
		},
		{
			"bufferView":7,
			"componentType":5123,
			"count":36,
			"type":"SCALAR"
		},
		{
			"bufferView":8,
			"componentType":5126,
			"count":24,
			"max":[
				1,
				1,
				1
			],
			"min":[
				-1,
				-1,
				-1
			],
			"type":"VEC3"
		},
		{
			"bufferView":9,
			"componentType":5126,
			"count":24,
			"type":"VEC3"
		},
		{
			"bufferView":10,
			"componentType":5126,
			"count":24,
			"type":"VEC2"
		},
		{
			"bufferView":11,
			"componentType":5126,
			"count":24,
			"max":[
				1,
				1,
				1
			],
			"min":[
				-1,
				-1,
				-1
			],
			"type":"VEC3"
		},
		{
			"bufferView":12,
			"componentType":5126,
			"count":24,
			"type":"VEC3"
		},
		{
			"bufferView":13,
			"componentType":5126,
			"count":24,
			"type":"VEC2"
		},
		{
			"bufferView":14,
			"componentType":5126,
			"count":816,
			"max":[
				3.568000316619873,
				0,
				0.23000000417232513
			],
			"min":[
				0.07700000703334808,
				0,
				-0.6820000410079956
			],
			"type":"VEC3"
		},
		{
			"bufferView":15,
			"componentType":5126,
			"count":816,
			"type":"VEC3"
		},
		{
			"bufferView":16,
			"componentType":5126,
			"count":816,
			"type":"VEC2"
		},
		{
			"bufferView":17,
			"componentType":5123,
			"count":2424,
			"type":"SCALAR"
		},
		{
			"bufferView":18,
			"componentType":5126,
			"count":816,
			"max":[
				3.568000316619873,
				0,
				0.23000000417232513
			],
			"min":[
				0.07700000703334808,
				0,
				-0.6820000410079956
			],
			"type":"VEC3"
		},
		{
			"bufferView":19,
			"componentType":5126,
			"count":816,
			"type":"VEC3"
		},
		{
			"bufferView":20,
			"componentType":5126,
			"count":816,
			"type":"VEC2"
		},
		{
			"bufferView":21,
			"componentType":5126,
			"count":816,
			"max":[
				3.568000316619873,
				0,
				0.23000000417232513
			],
			"min":[
				0.07700000703334808,
				0,
				-0.6820000410079956
			],
			"type":"VEC3"
		},
		{
			"bufferView":22,
			"componentType":5126,
			"count":816,
			"type":"VEC3"
		},
		{
			"bufferView":23,
			"componentType":5126,
			"count":816,
			"type":"VEC2"
		}
	],
	"bufferViews":[
		{
			"buffer":0,
			"byteLength":3432,
			"byteOffset":0,
			"target":34962
		},
		{
			"buffer":0,
			"byteLength":3432,
			"byteOffset":3432,
			"target":34962
		},
		{
			"buffer":0,
			"byteLength":2288,
			"byteOffset":6864,
			"target":34962
		},
		{
			"buffer":0,
			"byteLength":1212,
			"byteOffset":9152,
			"target":34963
		},
		{
			"buffer":0,
			"byteLength":288,
			"byteOffset":10364,
			"target":34962
		},
		{
			"buffer":0,
			"byteLength":288,
			"byteOffset":10652,
			"target":34962
		},
		{
			"buffer":0,
			"byteLength":192,
			"byteOffset":10940,
			"target":34962
		},
		{
			"buffer":0,
			"byteLength":72,
			"byteOffset":11132,
			"target":34963
		},
		{
			"buffer":0,
			"byteLength":288,
			"byteOffset":11204,
			"target":34962
		},
		{
			"buffer":0,
			"byteLength":288,
			"byteOffset":11492,
			"target":34962
		},
		{
			"buffer":0,
			"byteLength":192,
			"byteOffset":11780,
			"target":34962
		},
		{
			"buffer":0,
			"byteLength":288,
			"byteOffset":11972,
			"target":34962
		},
		{
			"buffer":0,
			"byteLength":288,
			"byteOffset":12260,
			"target":34962
		},
		{
			"buffer":0,
			"byteLength":192,
			"byteOffset":12548,
			"target":34962
		},
		{
			"buffer":0,
			"byteLength":9792,
			"byteOffset":12740,
			"target":34962
		},
		{
			"buffer":0,
			"byteLength":9792,
			"byteOffset":22532,
			"target":34962
		},
		{
			"buffer":0,
			"byteLength":6528,
			"byteOffset":32324,
			"target":34962
		},
		{
			"buffer":0,
			"byteLength":4848,
			"byteOffset":38852,
			"target":34963
		},
		{
			"buffer":0,
			"byteLength":9792,
			"byteOffset":43700,
			"target":34962
		},
		{
			"buffer":0,
			"byteLength":9792,
			"byteOffset":53492,
			"target":34962
		},
		{
			"buffer":0,
			"byteLength":6528,
			"byteOffset":63284,
			"target":34962
		},
		{
			"buffer":0,
			"byteLength":9792,
			"byteOffset":69812,
			"target":34962
		},
		{
			"buffer":0,
			"byteLength":9792,
			"byteOffset":79604,
			"target":34962
		},
		{
			"buffer":0,
			"byteLength":6528,
			"byteOffset":89396,
			"target":34962
		}
	],
	"buffers":[
		{
			"byteLength":95924,
			"uri":"recepcja_lewo.bin"
		}
	]
}
